<mxfile host="65bd71144e">
    <diagram id="ztDlOnzbOQnh2iPgAZnW" name="Page-1">
        <mxGraphModel dx="1492" dy="1927" grid="1" gridSize="10" guides="1" tooltips="1" connect="1" arrows="1" fold="1" page="1" pageScale="1" pageWidth="850" pageHeight="1100" math="0" shadow="0">
            <root>
                <mxCell id="0"/>
                <mxCell id="1" parent="0"/>
                <mxCell id="8" style="edgeStyle=none;html=1;exitX=0;exitY=1;exitDx=0;exitDy=0;entryX=0.5;entryY=0;entryDx=0;entryDy=0;fontSize=20;strokeColor=#FFFFFF;strokeWidth=2;" edge="1" parent="1" source="3" target="4">
                    <mxGeometry relative="1" as="geometry"/>
                </mxCell>
                <mxCell id="9" style="edgeStyle=none;html=1;exitX=0.5;exitY=1;exitDx=0;exitDy=0;entryX=0.5;entryY=0;entryDx=0;entryDy=0;fontSize=20;strokeColor=#FFFFFF;strokeWidth=2;" edge="1" parent="1" source="3" target="5">
                    <mxGeometry relative="1" as="geometry"/>
                </mxCell>
                <mxCell id="10" style="edgeStyle=none;html=1;exitX=1;exitY=1;exitDx=0;exitDy=0;entryX=0.5;entryY=0;entryDx=0;entryDy=0;fontSize=20;strokeWidth=2;strokeColor=#FFFFFF;" edge="1" parent="1" source="3" target="7">
                    <mxGeometry relative="1" as="geometry"/>
                </mxCell>
                <mxCell id="11" style="edgeStyle=none;html=1;exitX=0.5;exitY=1;exitDx=0;exitDy=0;fontSize=20;entryX=0.5;entryY=0;entryDx=0;entryDy=0;strokeColor=#FFFFFF;strokeWidth=2;" edge="1" parent="1" source="3" target="6">
                    <mxGeometry relative="1" as="geometry">
                        <mxPoint x="-250" y="-640" as="targetPoint"/>
                    </mxGeometry>
                </mxCell>
                <mxCell id="3" value="Main" style="ellipse;whiteSpace=wrap;html=1;fontSize=20;strokeColor=#FFFFFF;strokeWidth=3;fillColor=#18141D;fontColor=#FFFFFF;" vertex="1" parent="1">
                    <mxGeometry x="-400" y="-800" width="120" height="80" as="geometry"/>
                </mxCell>
                <mxCell id="15" style="edgeStyle=none;html=1;exitX=0.5;exitY=1;exitDx=0;exitDy=0;entryX=0.5;entryY=0;entryDx=0;entryDy=0;strokeColor=#FFFFFF;strokeWidth=2;fontSize=20;" edge="1" parent="1" source="4" target="13">
                    <mxGeometry relative="1" as="geometry"/>
                </mxCell>
                <mxCell id="4" value="Walkers" style="rounded=1;whiteSpace=wrap;html=1;strokeColor=#FFFFFF;strokeWidth=3;fontSize=20;fillColor=#18141D;fontColor=#FFFFFF;" vertex="1" parent="1">
                    <mxGeometry x="-620" y="-660" width="120" height="60" as="geometry"/>
                </mxCell>
                <mxCell id="14" style="edgeStyle=none;html=1;exitX=0.5;exitY=1;exitDx=0;exitDy=0;entryX=0.5;entryY=0;entryDx=0;entryDy=0;strokeColor=#FFFFFF;strokeWidth=2;fontSize=20;" edge="1" parent="1" source="5" target="13">
                    <mxGeometry relative="1" as="geometry"/>
                </mxCell>
                <mxCell id="5" value="CityList" style="rounded=1;whiteSpace=wrap;html=1;strokeColor=#FFFFFF;strokeWidth=3;fontSize=20;fontColor=#FFFFFF;fillColor=#18141D;" vertex="1" parent="1">
                    <mxGeometry x="-470" y="-660" width="120" height="60" as="geometry"/>
                </mxCell>
                <mxCell id="16" style="edgeStyle=none;html=1;exitX=0.5;exitY=1;exitDx=0;exitDy=0;entryX=0.5;entryY=0;entryDx=0;entryDy=0;strokeColor=#FFFFFF;strokeWidth=2;fontSize=20;" edge="1" parent="1" source="6" target="13">
                    <mxGeometry relative="1" as="geometry"/>
                </mxCell>
                <mxCell id="6" value="&lt;font style=&quot;font-size: 19px;&quot;&gt;Assignments&lt;/font&gt;" style="rounded=1;whiteSpace=wrap;html=1;strokeColor=#FFFFFF;strokeWidth=3;fontSize=20;fillColor=#18141D;fontColor=#FFFFFF;" vertex="1" parent="1">
                    <mxGeometry x="-320" y="-660" width="120" height="60" as="geometry"/>
                </mxCell>
                <mxCell id="17" style="edgeStyle=none;html=1;exitX=0.5;exitY=1;exitDx=0;exitDy=0;entryX=0.5;entryY=0;entryDx=0;entryDy=0;strokeColor=#FFFFFF;strokeWidth=2;fontSize=20;" edge="1" parent="1" source="7" target="13">
                    <mxGeometry relative="1" as="geometry"/>
                </mxCell>
                <mxCell id="7" value="Registered Pets" style="rounded=1;whiteSpace=wrap;html=1;strokeColor=#FFFFFF;strokeWidth=3;fontSize=20;fontColor=#FFFFFF;fillColor=#18141D;" vertex="1" parent="1">
                    <mxGeometry x="-170" y="-660" width="120" height="60" as="geometry"/>
                </mxCell>
                <mxCell id="13" value="Database" style="rounded=1;whiteSpace=wrap;html=1;strokeColor=#FFFFFF;strokeWidth=3;fontSize=20;fontColor=#FFFFFF;fillColor=#18141D;" vertex="1" parent="1">
                    <mxGeometry x="-400" y="-500" width="120" height="60" as="geometry"/>
                </mxCell>
            </root>
        </mxGraphModel>
    </diagram>
</mxfile>